# xmcd CD database file
#
# Track frame offsets:
#	150
#	16658
#	31145
#	35917
#	47827
#	60121
#	75417
#	87295
#	100356
#	112989
#	121875
#	135971
#	153879
#	160729
#	171352
#	183740
#
# Disc length: 2706 seconds
#
# Revision: 0
# Processed by: cddbd v1.5.1PL2 Copyright (c) Steve Scherf et al.
# Submitted via: CDex 1.51
#
DISCID=b90a9010
DTITLE=Petra Magoni and Ferruccio Spinetti - Musica Nuda 2
DYEAR=2006
DGENRE=Jazz
TTITLE0=Come together
TTITLE1=Lo sono meta'
TTITLE2=5 and 7
TTITLE3=Non andare via
TTITLE4=Couleur café
TTITLE5=I never can say goodbye
TTITLE6=Dindiandi
TTITLE7=Like a virgin
TTITLE8=Lascia ch'io pianga
TTITLE9=Il cacio con le pere
TTITLE10=Splendido splendente
TTITLE11=Le due corde vocali
TTITLE12=Sirene
TTITLE13=La vie en noir
TTITLE14=Il cammello e il dromedario
TTITLE15=Over the rainbow
EXTD=YEAR: 2006
EXTT0=
EXTT1=
EXTT2=
EXTT3=
EXTT4=
EXTT5=
EXTT6=
EXTT7=
EXTT8=
EXTT9=
EXTT10=
EXTT11=
EXTT12=
EXTT13=
EXTT14=
EXTT15=
PLAYORDER=
